<?xml version="1.0" standalone="no"?><svg xmlns="http://www.w3.org/2000/svg" viewBox="0 0 1440 320"><path fill="#0099ff" fill-opacity="1" d="M0,32L6.9,37.3C13.7,43,27,53,41,74.7C54.9,96,69,128,82,154.7C96,181,110,203,123,181.3C137.1,160,151,96,165,80C178.3,64,192,96,206,138.7C219.4,181,233,235,247,245.3C260.6,256,274,224,288,186.7C301.7,149,315,107,329,112C342.9,117,357,171,370,192C384,213,398,203,411,197.3C425.1,192,439,192,453,181.3C466.3,171,480,149,494,138.7C507.4,128,521,128,535,112C548.6,96,562,64,576,74.7C589.7,85,603,139,617,181.3C630.9,224,645,256,658,277.3C672,299,686,309,699,309.3C713.1,309,727,299,741,288C754.3,277,768,267,782,272C795.4,277,809,299,823,261.3C836.6,224,850,128,864,80C877.7,32,891,32,905,69.3C918.9,107,933,181,946,192C960,203,974,149,987,128C1001.1,107,1015,117,1029,122.7C1042.3,128,1056,128,1070,133.3C1083.4,139,1097,149,1111,170.7C1124.6,192,1138,224,1152,245.3C1165.7,267,1179,277,1193,234.7C1206.9,192,1221,96,1234,85.3C1248,75,1262,149,1275,165.3C1289.1,181,1303,139,1317,117.3C1330.3,96,1344,96,1358,80C1371.4,64,1385,32,1399,37.3C1412.6,43,1426,85,1433,106.7L1440,128L1440,320L1433.1,320C1426.3,320,1413,320,1399,320C1385.1,320,1371,320,1358,320C1344,320,1330,320,1317,320C1302.9,320,1289,320,1275,320C1261.7,320,1248,320,1234,320C1220.6,320,1207,320,1193,320C1179.4,320,1166,320,1152,320C1138.3,320,1125,320,1111,320C1097.1,320,1083,320,1070,320C1056,320,1042,320,1029,320C1014.9,320,1001,320,987,320C973.7,320,960,320,946,320C932.6,320,919,320,905,320C891.4,320,878,320,864,320C850.3,320,837,320,823,320C809.1,320,795,320,782,320C768,320,754,320,741,320C726.9,320,713,320,699,320C685.7,320,672,320,658,320C644.6,320,631,320,617,320C603.4,320,590,320,576,320C562.3,320,549,320,535,320C521.1,320,507,320,494,320C480,320,466,320,453,320C438.9,320,425,320,411,320C397.7,320,384,320,370,320C356.6,320,343,320,329,320C315.4,320,302,320,288,320C274.3,320,261,320,247,320C233.1,320,219,320,206,320C192,320,178,320,165,320C150.9,320,137,320,123,320C109.7,320,96,320,82,320C68.6,320,55,320,41,320C27.4,320,14,320,7,320L0,320Z"></path></svg>